# xmcd
#
# Track frame offsets:
#	150
#	16684
#	34629
#	48644
#	62373
#	78674
#	96168
#	112469
#	129409
#	142291
#	160445
#	173821
#	189950
#	203641
#	217940
#	232382
#	245654
#	263223
#
# Disc length: 3699 seconds
#
# Revision: 1
# Processed by: cddbd v1.5.2PL0 Copyright (c) Steve Scherf et al.
# Submitted via: audiograbber 1.83.01
#
DISCID=080e7112
DTITLE=Various Artist - NOW That's What I Call Country, Vol. 12
DYEAR=2019
DGENRE=Country
TTITLE0=Kacey Musgraves - Space Cowboy
TTITLE1=Luke Bryan - What Makes You Country
TTITLE2=Luke Combs - She Got the Best of Me
TTITLE3=Kane Brown - Lose It
TTITLE4=Keith Urban - Never Comin Down (feat. Shy Carter)
TTITLE5=Carrie Underwood - Love Wins
TTITLE6=Tim McGraw - Neon Church
TTITLE7=Pistol Annies - Best Years of My Life
TTITLE8=Old Dominion - Hotel Key
TTITLE9=Dierks Bentley - Burning Man (feat. Brothers Osborne)
TTITLE10=Jordan Davis - Take It from Me
TTITLE11=Russell Dickerson - Blue Tacoma
TTITLE12=Thomas Rhett - Sixteen
TTITLE13=Chris Young - Hangin' On
TTITLE14=Dustin Lynch - Good Girl
TTITLE15=Jon Pardi - Night Shift
TTITLE16=Scotty McCreery - This Is It
TTITLE17=Midland - Burn Out
EXTD=
EXTT0=
EXTT1=
EXTT2=
EXTT3=
EXTT4=
EXTT5=
EXTT6=
EXTT7=
EXTT8=
EXTT9=
EXTT10=
EXTT11=
EXTT12=
EXTT13=
EXTT14=
EXTT15=
EXTT16=
EXTT17=
PLAYORDER=
